<svg version="1.1" id="Layer_1" xmlns="http://www.w3.org/2000/svg" xmlns:xlink="http://www.w3.org/1999/xlink" x="0px" y="0px"
	 width="100%" viewBox="0 0 512 512" enable-background="new 0 0 512 512" xml:space="preserve">
<path fill="#4E4FEB" opacity="1.000000" stroke="none" 
	d="
M185.000000,0.999999 
	C264.020905,1.000000 343.041779,1.000000 422.661865,1.372393 
	C448.743256,6.786566 468.800293,29.264719 468.876404,56.864422 
	C469.177399,166.020050 469.014679,275.177002 468.957550,384.333435 
	C468.954620,389.915222 468.484528,395.510437 467.971863,401.075439 
	C466.858917,413.156006 461.411774,423.394684 453.313873,432.055725 
	C441.834229,444.333649 427.206421,449.829163 410.531647,449.979462 
	C398.759888,450.085541 386.986420,450.000000 375.222931,450.000000 
	C374.780792,455.954041 375.120453,461.533539 373.850677,466.718903 
	C368.419617,488.897247 355.863861,504.792664 332.998291,511.086273 
	C332.215881,511.301575 331.660950,512.343384 331.000000,513.000000 
	C251.312439,513.000000 171.624878,513.000000 91.338112,512.627563 
	C65.255814,507.213074 45.200890,484.737885 45.124680,457.155029 
	C44.821774,347.525879 44.986675,237.895416 45.042290,128.265457 
	C45.044868,123.184891 45.390289,118.069145 46.042271,113.030106 
	C49.717663,84.623703 72.809662,65.164719 100.849167,64.082298 
	C113.443199,63.596130 126.071587,64.000000 138.532684,64.000000 
	C139.061005,59.636803 139.686157,55.771587 139.972839,51.881432 
	C141.211655,35.071365 148.856644,21.621542 162.466736,12.151028 
	C169.270096,7.416938 177.445282,4.654315 185.000000,0.999999 
M337.000000,162.500000 
	C337.000000,148.671371 336.923523,134.842194 337.025330,121.014313 
	C337.100372,110.823212 327.002930,101.882271 318.026154,101.903740 
	C246.051865,102.075905 174.076019,102.173943 102.103455,101.780495 
	C93.077530,101.731163 82.790405,112.812286 82.811890,121.272629 
	C83.094505,232.566132 83.077484,343.860748 82.884987,455.154633 
	C82.864838,466.802216 91.727577,476.040558 103.662399,476.030273 
	C174.637405,475.969025 245.612549,475.954285 316.587494,476.043793 
	C328.816559,476.059204 337.147675,465.571198 337.125671,455.397186 
	C336.915375,358.098480 337.000000,260.799164 337.000000,162.500000 
M227.500000,64.000000 
	C241.164688,64.000000 254.830734,63.876793 268.493713,64.029526 
	C287.907715,64.246536 307.339142,64.244049 326.725067,65.149864 
	C339.419067,65.742981 349.833496,72.598503 358.527863,81.258484 
	C369.958984,92.644394 374.931152,107.168892 374.948761,123.145134 
	C375.052795,217.464859 375.000000,311.784760 375.000000,406.104614 
	C375.000000,408.024750 375.000000,409.944855 375.000000,412.000000 
	C387.661011,412.000000 399.697571,411.335999 411.621063,412.211914 
	C421.010071,412.901642 431.221466,401.183289 431.197906,392.482025 
	C430.897705,281.498718 430.890961,170.514053 431.154877,59.530560 
	C431.183899,47.329002 422.246643,37.888454 409.515625,37.919147 
	C339.359375,38.088314 269.201904,38.160095 199.046432,37.873016 
	C183.927963,37.811150 174.055252,50.115772 177.641510,64.000000 
	C193.884567,64.000000 210.192276,64.000000 227.500000,64.000000 
z"/>
<path fill="#FFFFFF" opacity="1.000000" stroke="none" 
	d="
M184.531342,0.999999 
	C177.445282,4.654315 169.270096,7.416938 162.466736,12.151028 
	C148.856644,21.621542 141.211655,35.071365 139.972839,51.881432 
	C139.686157,55.771587 139.061005,59.636803 138.532684,64.000000 
	C126.071587,64.000000 113.443199,63.596130 100.849167,64.082298 
	C72.809662,65.164719 49.717663,84.623703 46.042271,113.030106 
	C45.390289,118.069145 45.044868,123.184891 45.042290,128.265457 
	C44.986675,237.895416 44.821774,347.525879 45.124680,457.155029 
	C45.200890,484.737885 65.255814,507.213074 90.869453,512.627563 
	C61.016705,513.000000 31.033409,513.000000 1.025057,513.000000 
	C1.025057,342.445068 1.025057,171.890137 1.025057,1.000000 
	C62.020485,1.000000 123.041588,1.000000 184.531342,0.999999 
z"/>
<path fill="#FFFFFF" opacity="1.000000" stroke="none" 
	d="
M331.468658,513.000000 
	C331.660950,512.343384 332.215881,511.301575 332.998291,511.086273 
	C355.863861,504.792664 368.419617,488.897247 373.850677,466.718903 
	C375.120453,461.533539 374.780792,455.954041 375.222931,450.000000 
	C386.986420,450.000000 398.759888,450.085541 410.531647,449.979462 
	C427.206421,449.829163 441.834229,444.333649 453.313873,432.055725 
	C461.411774,423.394684 466.858917,413.156006 467.971863,401.075439 
	C468.484528,395.510437 468.954620,389.915222 468.957550,384.333435 
	C469.014679,275.177002 469.177399,166.020050 468.876404,56.864422 
	C468.800293,29.264719 448.743256,6.786566 423.130524,1.372393 
	C452.983246,1.000000 482.966522,1.000000 512.974854,1.000000 
	C512.974854,171.554688 512.974854,342.109375 512.974854,513.000000 
	C452.646179,513.000000 392.291748,513.000000 331.468658,513.000000 
z"/>
<path fill="#FFFFFF" opacity="1.000000" stroke="none" 
	d="
M337.000000,163.000000 
	C337.000000,260.799164 336.915375,358.098480 337.125671,455.397186 
	C337.147675,465.571198 328.816559,476.059204 316.587494,476.043793 
	C245.612549,475.954285 174.637405,475.969025 103.662399,476.030273 
	C91.727577,476.040558 82.864838,466.802216 82.884987,455.154633 
	C83.077484,343.860748 83.094505,232.566132 82.811890,121.272629 
	C82.790405,112.812286 93.077530,101.731163 102.103455,101.780495 
	C174.076019,102.173943 246.051865,102.075905 318.026154,101.903740 
	C327.002930,101.882271 337.100372,110.823212 337.025330,121.014313 
	C336.923523,134.842194 337.000000,148.671371 337.000000,163.000000 
z"/>
<path fill="#FFFFFF" opacity="1.000000" stroke="none" 
	d="
M227.000000,64.000000 
	C210.192276,64.000000 193.884567,64.000000 177.641510,64.000000 
	C174.055252,50.115772 183.927963,37.811150 199.046432,37.873016 
	C269.201904,38.160095 339.359375,38.088314 409.515625,37.919147 
	C422.246643,37.888454 431.183899,47.329002 431.154877,59.530560 
	C430.890961,170.514053 430.897705,281.498718 431.197906,392.482025 
	C431.221466,401.183289 421.010071,412.901642 411.621063,412.211914 
	C399.697571,411.335999 387.661011,412.000000 375.000000,412.000000 
	C375.000000,409.944855 375.000000,408.024750 375.000000,406.104614 
	C375.000000,311.784760 375.052795,217.464859 374.948761,123.145134 
	C374.931152,107.168892 369.958984,92.644394 358.527863,81.258484 
	C349.833496,72.598503 339.419067,65.742981 326.725067,65.149864 
	C307.339142,64.244049 287.907715,64.246536 268.493713,64.029526 
	C254.830734,63.876793 241.164688,64.000000 227.000000,64.000000 
z"/>
</svg>