<?xml version="1.0" encoding="UTF-8"?>
<svg version="1.1" xmlns="http://www.w3.org/2000/svg" width="512" height="512">
<path d="M0 0 C1.00106277 -0.0066568 2.00212555 -0.0133136 3.03352356 -0.02017212 C5.14383114 -0.03025411 7.25417031 -0.03499053 9.36450195 -0.03466797 C12.55539933 -0.03902613 15.74489494 -0.07535301 18.93554688 -0.11328125 C37.17698331 -0.21550865 52.78044646 2.77990397 66.7421875 15.546875 C73.11647634 22.44858727 78.41454261 30.39597157 81.39453125 39.3359375 C82.09815796 39.33958313 82.80178467 39.34322876 83.5267334 39.34698486 C90.23257123 39.38521362 96.93796462 39.44245037 103.64347076 39.51984024 C107.08899037 39.55896759 110.5342677 39.59132249 113.97998047 39.60693359 C149.3595349 39.77930944 149.3595349 39.77930944 164.83203125 48.1484375 C165.49614014 48.49608154 166.16024902 48.84372559 166.84448242 49.2019043 C172.16813327 52.06076929 176.924937 55.24968436 181.39453125 59.3359375 C182.2865625 60.13644531 183.17859375 60.93695313 184.09765625 61.76171875 C198.12656432 75.00485464 207.87039274 93.48327212 208.65414429 113.00698853 C208.77774159 118.50887847 208.73270354 124.00911403 208.6875 129.51171875 C208.68189336 131.53337792 208.67762832 133.5550412 208.67463684 135.57670593 C208.66327214 140.85549498 208.63387855 146.13402994 208.6005249 151.41271973 C208.56964188 156.81612716 208.55609282 162.21957631 208.54101562 167.62304688 C208.5089996 178.19412105 208.45790653 188.76500801 208.39453125 199.3359375 C208.99206711 199.32705505 209.58960297 199.31817261 210.20524597 199.309021 C216.48430714 199.21979519 222.76318517 199.15989469 229.04272461 199.11621094 C231.37906218 199.09622709 233.71535058 199.06903062 236.05151367 199.03417969 C257.25729194 198.72599569 274.055549 200.72600343 290.11328125 215.99609375 C301.96002994 228.14712537 307.70069302 242.2548013 307.68505859 259.12304688 C307.69177582 260.17450394 307.69849304 261.225961 307.70541382 262.3092804 C307.72432757 265.76613152 307.72831422 269.22278793 307.73046875 272.6796875 C307.73689959 275.09289631 307.74362817 277.50610434 307.75064087 279.91931152 C307.76259585 284.96950082 307.76632335 290.01962178 307.76513672 295.06982422 C307.76493325 301.53268961 307.79227278 307.99511668 307.82668114 314.45787811 C307.84894046 319.43880213 307.8529746 324.41962032 307.85191727 329.40058899 C307.85427323 331.78316259 307.86309643 334.16573911 307.878582 336.54826355 C307.89822829 339.88209642 307.89240924 343.2149792 307.88037109 346.54882812 C307.89161011 347.52672806 307.90284912 348.50462799 307.91442871 349.51216125 C307.8512661 356.41330156 306.55231498 362.13740817 301.578125 367.17578125 C301.00191406 367.53800781 300.42570312 367.90023438 299.83203125 368.2734375 C299.25324219 368.65371094 298.67445313 369.03398437 298.078125 369.42578125 C292.45891898 372.46354227 285.06530328 372.33160442 279.00390625 370.6875 C273.99753891 368.45183214 270.98452603 365.12687205 268.39453125 360.3359375 C267.49578803 357.63970783 267.26480464 356.07559629 267.24977112 353.30854797 C267.24287262 352.49139816 267.23597412 351.67424835 267.22886658 350.83233643 C267.22494652 349.49280914 267.22494652 349.49280914 267.22094727 348.1262207 C267.21426025 347.18278305 267.20757324 346.2393454 267.20068359 345.26731873 C267.18662576 343.21624865 267.17473404 341.16516286 267.16473579 339.11406898 C267.14832528 335.86449641 267.12508537 332.61503949 267.09983826 329.36552429 C267.02907726 320.12533336 266.96904447 310.88509431 266.91772461 301.64477539 C266.88585972 295.99376297 266.84456105 290.34288209 266.79752922 284.69197655 C266.78154953 282.54110274 266.76920943 280.39019863 266.76062202 278.23928261 C266.7484121 275.22359564 266.72423689 272.20821536 266.69750977 269.19262695 C266.69662605 267.8682814 266.69662605 267.8682814 266.69572449 266.5171814 C266.6035305 258.631443 265.64625893 251.58123528 260.39453125 245.3359375 C254.51542002 240.85865815 248.44788192 240.21374087 241.26004028 240.20222473 C240.05171539 240.19795975 238.8433905 240.19369476 237.59844971 240.18930054 C235.62990021 240.18998032 235.62990021 240.18998032 233.62158203 240.19067383 C232.21497509 240.18767917 230.80836897 240.18427594 229.40176392 240.18049622 C225.5917818 240.17168366 221.78182217 240.16931927 217.97183084 240.16868043 C215.58874053 240.16796842 213.20565589 240.16583125 210.82256699 240.16318321 C202.50101103 240.15393919 194.17947107 240.14984718 185.85791016 240.15063477 C178.11329542 240.15123545 170.36875036 240.14068302 162.62415326 240.1248911 C155.96408643 240.11179681 149.30404233 240.10645166 142.64396274 240.10709018 C138.67101455 240.10734459 134.69812833 240.10452473 130.72519302 240.09391212 C126.98723663 240.08419919 123.24940105 240.08417376 119.51144028 240.09142876 C117.49484418 240.09296533 115.47824801 240.08465041 113.46166992 240.07598877 C104.48414503 240.1070079 96.57473645 240.29803767 89.39453125 246.3359375 C84.49532387 252.76908201 84.2442243 259.52950605 84.26081848 267.33065796 C84.25855292 268.11826559 84.25628737 268.90587322 84.25395316 269.71734774 C84.24764082 272.34722475 84.24844074 274.97704986 84.24926758 277.60693359 C84.24627438 279.49629279 84.24287148 281.38565137 84.23908997 283.27500916 C84.2302626 288.40106386 84.2279124 293.52710186 84.22727418 298.65316343 C84.22656302 301.85705075 84.22442745 305.06093383 84.22177696 308.2648201 C84.21252807 319.4457552 84.20844155 330.62667839 84.20922852 341.80761719 C84.20982935 352.22427159 84.19927523 362.64087421 84.18348485 373.0575155 C84.17040369 382.00630988 84.16504485 390.95508734 84.16568393 399.90389121 C84.16593872 405.24617116 84.16309754 410.58840509 84.15250587 415.93067551 C84.14281512 420.95559851 84.14275245 425.98043155 84.15002251 431.00535774 C84.15106709 432.8467694 84.14871294 434.68818669 84.14266205 436.5295887 C84.13492136 439.04891423 84.13960058 441.56793068 84.14729309 444.08724976 C84.13957775 445.17258611 84.13957775 445.17258611 84.13170654 446.27984846 C84.18210272 453.78124157 85.46223425 460.47050323 90.39453125 466.3359375 C96.33914149 470.86309809 102.45519341 471.46594481 109.71884155 471.44514465 C111.59443504 471.44325638 111.59443504 471.44325638 113.50791931 471.44132996 C114.88076844 471.43472777 116.25361694 471.42799427 117.62646484 471.42114258 C119.08233044 471.41754355 120.53819706 471.41433933 121.99406433 471.41149902 C125.938367 471.40215245 129.88260864 471.38582308 133.82687712 471.36712861 C136.29371722 471.35546521 138.7605599 471.34480595 141.22740555 471.33438683 C148.95348759 471.30117718 156.6795268 471.26315574 164.40555418 471.21902162 C173.31007872 471.16829335 182.21446845 471.13404809 191.11911333 471.11384088 C198.01281654 471.09714027 204.90634766 471.0652412 211.79993498 471.02199477 C215.91263034 470.99655475 220.02511167 470.97757181 224.13788986 470.97461891 C228.007375 470.97145664 231.87630342 470.94937816 235.74561501 470.91306305 C237.16127787 470.90298902 238.57700749 470.89960263 239.99270058 470.90359306 C247.85130379 470.92149184 253.74982292 470.74917598 260.39453125 466.3359375 C264.66295657 461.72049841 265.83397187 456.85993193 266.89453125 450.7734375 C268.13300883 443.85172394 269.31670585 439.55632284 274.9921875 435.07421875 C280.4267569 431.54608144 286.1413848 430.69293126 292.45703125 431.9609375 C298.07914663 433.63984032 302.63916697 436.58938498 305.83203125 441.5859375 C309.99667219 451.12314554 308.02337417 463.90488919 304.6484375 473.34765625 C297.60176525 490.14112749 286.26359377 501.48719025 269.80078125 509.07421875 C260.39273147 512.55908123 251.32714304 512.63385905 241.43261719 512.62646484 C239.82678416 512.6324578 238.220954 512.6392651 236.61512756 512.64682007 C232.27400143 512.66440975 227.93295425 512.66917248 223.59179592 512.67045164 C220.87345762 512.67187786 218.15513909 512.67615635 215.43680573 512.68144608 C205.93588497 512.6999235 196.43502016 512.70811961 186.93408203 512.70654297 C178.10618405 512.70534238 169.27853087 512.72643435 160.4506948 512.7580303 C152.8478137 512.78426311 145.24501222 512.79490733 137.64208627 512.79363215 C133.11172374 512.79312455 128.58157896 512.79869521 124.0512619 512.81998825 C119.78621519 512.83948908 115.52159132 512.83941508 111.25652885 512.82495499 C109.70101992 512.82288034 108.14548369 512.82748654 106.59002113 512.8396759 C88.72821735 512.97046183 73.75947192 508.11770861 60.67578125 495.67578125 C49.50132781 484.21431274 43.06521843 470.37206927 43.12710571 454.29914856 C43.1225746 453.42352176 43.11804349 452.54789496 43.11337507 451.64573401 C43.1007772 448.72966977 43.10234846 445.81379341 43.10400391 442.89770508 C43.09801572 440.79941571 43.0912095 438.70112853 43.08364868 436.60284424 C43.06600959 430.91459815 43.06129413 425.22641228 43.06001711 419.53814149 C43.0585936 415.98008429 43.05432016 412.42204229 43.04902267 408.86398888 C43.03052824 396.43885708 43.0223512 384.01376815 43.02392578 371.58862305 C43.02512652 360.02680692 43.00403577 348.46517768 42.97243845 336.90340883 C42.94623966 326.9608672 42.93556002 317.01838647 42.9368366 307.07581061 C42.93734524 301.14481672 42.93171657 295.21398891 42.9104805 289.28302956 C42.89103786 283.70068269 42.89101491 278.1186593 42.90551376 272.53630066 C42.90759559 270.49541435 42.90293864 268.45450747 42.89079285 266.41365623 C42.78277942 246.99588405 46.18570701 231.2015397 60.0546875 216.6171875 C71.04150014 205.90550372 84.71869548 198.94480063 100.27929688 199.10888672 C101.02173645 199.10859467 101.76417603 199.10830261 102.52911377 199.10800171 C104.95312699 199.10938138 107.37682255 199.12487733 109.80078125 199.140625 C111.49328443 199.14435999 113.18578978 199.14720467 114.8782959 199.14920044 C119.31044595 199.15679862 123.74246276 199.17641392 128.17456055 199.1986084 C132.70619912 199.21914944 137.23785944 199.22821974 141.76953125 199.23828125 C150.64458946 199.25966376 159.51954923 199.29375312 168.39453125 199.3359375 C168.30977923 189.24274191 168.21476391 179.1496984 168.10700417 169.05672073 C168.05727024 164.36906078 168.01094009 159.6814209 167.97265625 154.99365234 C167.93551173 150.46127187 167.88907686 145.92906936 167.83646774 141.39684296 C167.81807744 139.67631941 167.80291422 137.95575795 167.79118729 136.23517609 C167.67562347 119.85086668 167.17737922 104.81655166 155.4140625 92.15625 C148.68395356 86.09003962 141.12556307 82.87153618 132.18359375 81.79296875 C130.93320312 81.64214844 129.6828125 81.49132812 128.39453125 81.3359375 C128.4034137 82.11996948 128.41229614 82.90400146 128.42144775 83.71179199 C128.50183204 91.12620193 128.5626159 98.54039845 128.60177994 105.95513153 C128.62259204 109.76650185 128.65079122 113.57750996 128.69628906 117.38867188 C128.73997704 121.07157414 128.76371624 124.75412958 128.77404022 128.43727112 C128.78139075 129.83742222 128.79574423 131.23755586 128.81745148 132.63755798 C128.93635811 140.62939075 128.83667192 146.55047289 124.39453125 153.3359375 C122.578125 155.17578125 122.578125 155.17578125 120.83203125 156.2734375 C119.96384766 156.84384766 119.96384766 156.84384766 119.078125 157.42578125 C114.95662605 159.65387697 111.00253422 159.4841999 106.4568634 159.48310852 C105.63915063 159.48678521 104.82143786 159.4904619 103.97894591 159.49425 C101.22920308 159.50529417 98.47949803 159.50913193 95.72973633 159.51293945 C93.76200236 159.51920357 91.79426957 159.52585033 89.82653809 159.53285217 C84.47304765 159.55026707 79.11956614 159.56081539 73.76605439 159.5690577 C70.42164279 159.57420708 67.07723397 159.58028285 63.73282433 159.58656883 C53.26981103 159.60562273 42.80680479 159.61985316 32.34377748 159.6281808 C20.26452655 159.63795338 8.18545887 159.66427273 -3.89372748 159.70468169 C-13.22886918 159.73483954 -22.56395834 159.74964939 -31.89914781 159.75296181 C-37.47516239 159.75531275 -43.05098125 159.76427901 -48.62694359 159.78942299 C-53.87432361 159.81270266 -59.12137903 159.81693725 -64.3687973 159.80666161 C-66.29245648 159.80616611 -68.21613163 159.8124907 -70.1397419 159.82621765 C-72.77117642 159.84394165 -75.4014467 159.83682817 -78.03288269 159.82368469 C-78.78961421 159.83465394 -79.54634572 159.84562318 -80.3260085 159.85692483 C-86.53018703 159.7823878 -91.96375512 157.94399873 -96.4453125 153.51953125 C-96.80753906 152.94332031 -97.16976562 152.36710938 -97.54296875 151.7734375 C-97.92324219 151.19464844 -98.30351563 150.61585938 -98.6953125 150.01953125 C-100.7079312 146.29661854 -100.7270254 143.1807234 -100.71899414 139.02856445 C-100.71888084 137.07688103 -100.71888084 137.07688103 -100.71876526 135.08576965 C-100.7136586 133.6652523 -100.7084426 132.24473533 -100.703125 130.82421875 C-100.70125966 129.37119088 -100.69983631 127.91816239 -100.69883728 126.46513367 C-100.69502121 122.64287578 -100.68519868 118.82065595 -100.6741333 114.99841309 C-100.66389962 111.09725459 -100.65933546 107.19608993 -100.65429688 103.29492188 C-100.64357561 95.64190974 -100.6265101 87.98892896 -100.60546875 80.3359375 C-102.20850224 80.65082811 -103.81122654 80.96729302 -105.41381836 81.28442383 C-106.7526432 81.54851799 -106.7526432 81.54851799 -108.11851501 81.81794739 C-119.24369704 84.13513335 -127.67866144 89.04699627 -134.48046875 98.2109375 C-141.59224739 109.07615487 -141.75570934 120.44156956 -141.73918152 133.06195068 C-141.74257985 134.9706061 -141.74257985 134.9706061 -141.74604684 136.91782022 C-141.75214067 140.43387564 -141.75203411 143.9499072 -141.75085247 147.4659667 C-141.75064785 151.26432248 -141.75617306 155.06267071 -141.76091003 158.86102295 C-141.76920392 166.29689235 -141.77196431 173.73275383 -141.77252241 181.16862747 C-141.77299818 187.21524589 -141.77505596 193.26186171 -141.77822304 199.30847931 C-141.78702623 216.46573635 -141.79164295 233.62298715 -141.79089256 250.78024647 C-141.79083263 252.16664654 -141.79083263 252.16664654 -141.79077148 253.58105469 C-141.79071016 254.96915479 -141.79071016 254.96915479 -141.7906476 256.38529733 C-141.79024125 271.37903412 -141.79980908 286.37274579 -141.81390985 301.36647531 C-141.82828654 316.77563741 -141.83517932 332.18478726 -141.83431607 347.59395623 C-141.83398455 356.23950528 -141.83671218 364.88502799 -141.84749413 373.53057098 C-141.85661614 380.89205948 -141.85876043 388.2535097 -141.8519847 395.61500141 C-141.84872806 399.36736418 -141.84863174 403.11965357 -141.85733795 406.87200928 C-141.86669905 410.94872449 -141.86040463 415.02527106 -141.85270691 419.10198975 C-141.85785047 420.27555456 -141.86299404 421.44911937 -141.86829346 422.65824676 C-141.8082501 437.09564816 -139.7400395 449.62928619 -129.625 460.515625 C-119.12661628 469.9783848 -106.75361017 471.48634119 -93.1953125 471.4777832 C-92.290159 471.48125763 -91.38500549 471.48473206 -90.4524231 471.48831177 C-88.50019942 471.49562467 -86.54796768 471.50099364 -84.59573364 471.50460243 C-81.50117383 471.51181618 -78.40676818 471.52751707 -75.31225586 471.54594421 C-66.51841275 471.59819811 -57.7246593 471.64640383 -48.93066406 471.66186523 C-43.53962048 471.67196198 -38.14897374 471.70132043 -32.75808716 471.74318504 C-30.71048995 471.75546599 -28.66283667 471.76062163 -26.61520386 471.75838661 C-23.74824781 471.75602609 -20.8824272 471.77825416 -18.015625 471.8059082 C-17.17798615 471.79930679 -16.34034729 471.79270538 -15.47732544 471.78590393 C-9.00902368 471.88793828 -3.4618492 473.51594406 1.234375 478.15234375 C1.59660156 478.72855469 1.95882812 479.30476563 2.33203125 479.8984375 C2.90244141 480.76662109 2.90244141 480.76662109 3.484375 481.65234375 C6.52213602 487.27154977 6.39019817 494.66516547 4.74609375 500.7265625 C2.51042589 505.73292984 -0.8145342 508.74594272 -5.60546875 511.3359375 C-8.36938733 512.25724369 -10.03107631 512.46703416 -12.88273621 512.48310852 C-14.19208885 512.49384148 -14.19208885 512.49384148 -15.52789307 512.50479126 C-16.4831488 512.50748016 -17.43840454 512.51016907 -18.42260742 512.51293945 C-19.93553123 512.52279625 -19.93553123 512.52279625 -21.47901917 512.53285217 C-24.82715938 512.55260596 -28.17525448 512.56425843 -31.5234375 512.57421875 C-32.67016748 512.57829428 -33.81689747 512.5823698 -34.99837685 512.58656883 C-41.07923833 512.60744804 -47.1600772 512.62173631 -53.2409668 512.63110352 C-59.48905791 512.64211346 -65.73678752 512.67644524 -71.9847517 512.71627522 C-76.8141592 512.7425824 -81.64348288 512.75080829 -86.4729557 512.75438499 C-88.77356696 512.75922221 -91.07417521 512.77075314 -93.37471581 512.78942299 C-109.4297282 512.911515 -124.5732893 512.35013835 -139.04296875 504.5234375 C-139.70707764 504.17579346 -140.37118652 503.82814941 -141.05541992 503.4699707 C-146.37907077 500.61110571 -151.1358745 497.42219064 -155.60546875 493.3359375 C-156.4975 492.53542969 -157.38953125 491.73492187 -158.30859375 490.91015625 C-173.02782456 477.01536323 -182.36732239 457.92652365 -182.98578548 437.5335722 C-183.0033538 435.06392121 -183.00494221 432.59412074 -182.9931488 430.12443542 C-182.99733229 428.7386815 -183.00281532 427.35293101 -183.00946862 425.96718675 C-183.02380924 422.19644965 -183.01971457 418.42593322 -183.0123018 414.65518463 C-183.00754392 410.57393066 -183.02010305 406.49272267 -183.03031921 402.41148376 C-183.0474619 394.43016673 -183.04835661 386.44892858 -183.04310631 378.46759792 C-183.03905466 371.97585565 -183.04051996 365.48413658 -183.04585457 358.9923954 C-183.04660299 358.06625496 -183.04735141 357.14011452 -183.04812251 356.18590922 C-183.04965409 354.30406885 -183.05119244 352.4222285 -183.05273748 350.54038814 C-183.06644631 332.91672666 -183.06103638 315.29310964 -183.04955227 297.66944919 C-183.03962317 281.57292306 -183.05255786 265.47651193 -183.07648646 249.38000353 C-183.1009134 232.82256108 -183.11047641 216.2651721 -183.10383373 199.70771199 C-183.10034929 190.42380733 -183.10252213 181.13999105 -183.12008476 171.85610008 C-183.13485185 163.95242829 -183.13538365 156.04890711 -183.11801385 148.14523812 C-183.10953812 144.1188665 -183.10726953 140.09276342 -183.12266541 136.06640625 C-183.25242651 99.53793164 -183.25242651 99.53793164 -174.79296875 83.8984375 C-174.44532471 83.23432861 -174.09768066 82.57021973 -173.73950195 81.88598633 C-170.88063696 76.56233548 -167.69172189 71.80553175 -163.60546875 67.3359375 C-162.40470703 65.99789062 -162.40470703 65.99789062 -161.1796875 64.6328125 C-147.20305322 49.82688444 -128.175543 40.69499311 -107.71362305 39.90356445 C-105.28584189 39.86284749 -102.85777695 39.83690029 -100.4296875 39.82421875 C-99.13851517 39.80626755 -97.84734283 39.78831635 -96.51704407 39.76982117 C-93.13230313 39.72291943 -89.74762588 39.69272781 -86.3626709 39.66638184 C-82.88943893 39.63626888 -79.41642574 39.58984691 -75.94335938 39.54492188 C-69.16418849 39.4595727 -62.38494415 39.39192889 -55.60546875 39.3359375 C-55.19892311 38.40729134 -55.19892311 38.40729134 -54.78416443 37.45988464 C-54.42669632 36.64836441 -54.06922821 35.83684418 -53.70092773 35.00073242 C-53.34739731 34.19600998 -52.99386688 33.39128754 -52.62962341 32.56217957 C-45.67004676 17.43389586 -33.52364898 8.68270716 -18.60546875 2.3359375 C-12.30569867 0.43576681 -6.55962127 0.01543284 0 0 Z M-13.078125 46.38671875 C-16.07566244 50.2122205 -17.24538835 54.730753 -18.60546875 59.3359375 C-22.84851775 73.59536447 -22.84851775 73.59536447 -30.36376953 77.92504883 C-33.85391088 79.44406727 -36.31145526 79.75750861 -40.09765625 79.84765625 C-41.17901855 79.88076904 -42.26038086 79.91388184 -43.37451172 79.94799805 C-44.72947754 79.97289307 -46.08444336 79.99778809 -47.48046875 80.0234375 C-51.81171875 80.1265625 -56.14296875 80.2296875 -60.60546875 80.3359375 C-60.60546875 93.2059375 -60.60546875 106.0759375 -60.60546875 119.3359375 C-11.43546875 119.3359375 37.73453125 119.3359375 88.39453125 119.3359375 C88.39453125 106.4659375 88.39453125 93.5959375 88.39453125 80.3359375 C79.21124175 80.16589314 79.21124175 80.16589314 70.02734375 80.03808594 C56.74807122 79.68688023 56.74807122 79.68688023 51.39453125 75.3359375 C46.88849248 70.16992336 45.58090841 63.8958728 43.859375 57.41210938 C42.02928094 51.07755727 39.34220305 45.78531978 33.57861328 42.20922852 C27.07087977 39.60715354 19.90238251 40.15244849 13.01953125 40.1484375 C11.92125 40.13619141 10.82296875 40.12394531 9.69140625 40.11132812 C1.16535897 40.09599351 -6.56941057 40.29125603 -13.078125 46.38671875 Z " fill="#4E4FEB" transform="translate(193.60546875,-0.3359375)"/>
<path d="M0 0 C1.09328865 -0.0098568 1.09328865 -0.0098568 2.20866394 -0.01991272 C4.62128812 -0.03962494 7.03385003 -0.05130531 9.4465332 -0.0612793 C10.27227152 -0.06535482 11.09800983 -0.06943035 11.94877052 -0.07362938 C16.32163873 -0.09448395 20.69447564 -0.1087868 25.06738281 -0.11816406 C29.57204278 -0.12921111 34.07620642 -0.16359274 38.58069134 -0.20333576 C42.05439639 -0.22955391 45.52798427 -0.23786062 49.00177956 -0.24144554 C50.66148025 -0.24630019 52.3211761 -0.25788209 53.98077965 -0.27648354 C70.08980289 -0.44577761 70.08980289 -0.44577761 76.80981445 4.17700195 C78.6496582 5.9934082 78.6496582 5.9934082 79.74731445 7.73950195 C80.12758789 8.31829102 80.50786133 8.89708008 80.8996582 9.4934082 C83.93741923 15.11261422 83.80548138 22.50622992 82.16137695 28.56762695 C79.92570909 33.57399429 76.600749 36.58700718 71.80981445 39.17700195 C68.24991848 40.36363394 65.3784885 40.32595732 61.61962891 40.35400391 C60.52634026 40.3638607 60.52634026 40.3638607 59.41096497 40.37391663 C56.99834078 40.39362885 54.58577887 40.40530921 52.1730957 40.4152832 C51.34735739 40.41935873 50.52161907 40.42343426 49.67085838 40.42763329 C45.29799017 40.44848786 40.92515326 40.4627907 36.55224609 40.47216797 C32.04758612 40.48321501 27.54342248 40.51759665 23.03893757 40.55733967 C19.56523252 40.58355782 16.09164463 40.59186452 12.61784935 40.59544945 C10.95814866 40.6003041 9.29845281 40.611886 7.63884926 40.63048744 C-8.47017399 40.79978151 -8.47017399 40.79978151 -15.19018555 36.17700195 C-17.0300293 34.3605957 -17.0300293 34.3605957 -18.12768555 32.61450195 C-18.50795898 32.03571289 -18.88823242 31.45692383 -19.2800293 30.8605957 C-22.31779032 25.24138969 -22.18585247 17.84777398 -20.54174805 11.78637695 C-18.30608019 6.78000961 -14.98112009 3.76699673 -10.19018555 1.17700195 C-6.63028957 -0.00963004 -3.7588596 0.02804659 0 0 Z " fill="#4E4FEB" transform="translate(338.190185546875,348.822998046875)"/>
<path d="M0 0 C1.09328865 -0.0098568 1.09328865 -0.0098568 2.20866394 -0.01991272 C4.62128812 -0.03962494 7.03385003 -0.05130531 9.4465332 -0.0612793 C10.27227152 -0.06535482 11.09800983 -0.06943035 11.94877052 -0.07362938 C16.32163873 -0.09448395 20.69447564 -0.1087868 25.06738281 -0.11816406 C29.57204278 -0.12921111 34.07620642 -0.16359274 38.58069134 -0.20333576 C42.05439639 -0.22955391 45.52798427 -0.23786062 49.00177956 -0.24144554 C50.66148025 -0.24630019 52.3211761 -0.25788209 53.98077965 -0.27648354 C70.08980289 -0.44577761 70.08980289 -0.44577761 76.80981445 4.17700195 C78.6496582 5.9934082 78.6496582 5.9934082 79.74731445 7.73950195 C80.12758789 8.31829102 80.50786133 8.89708008 80.8996582 9.4934082 C83.93741923 15.11261422 83.80548138 22.50622992 82.16137695 28.56762695 C79.92570909 33.57399429 76.600749 36.58700718 71.80981445 39.17700195 C68.24991848 40.36363394 65.3784885 40.32595732 61.61962891 40.35400391 C60.52634026 40.3638607 60.52634026 40.3638607 59.41096497 40.37391663 C56.99834078 40.39362885 54.58577887 40.40530921 52.1730957 40.4152832 C51.34735739 40.41935873 50.52161907 40.42343426 49.67085838 40.42763329 C45.29799017 40.44848786 40.92515326 40.4627907 36.55224609 40.47216797 C32.04758612 40.48321501 27.54342248 40.51759665 23.03893757 40.55733967 C19.56523252 40.58355782 16.09164463 40.59186452 12.61784935 40.59544945 C10.95814866 40.6003041 9.29845281 40.611886 7.63884926 40.63048744 C-8.47017399 40.79978151 -8.47017399 40.79978151 -15.19018555 36.17700195 C-17.0300293 34.3605957 -17.0300293 34.3605957 -18.12768555 32.61450195 C-18.50795898 32.03571289 -18.88823242 31.45692383 -19.2800293 30.8605957 C-22.31779032 25.24138969 -22.18585247 17.84777398 -20.54174805 11.78637695 C-18.30608019 6.78000961 -14.98112009 3.76699673 -10.19018555 1.17700195 C-6.63028957 -0.00963004 -3.7588596 0.02804659 0 0 Z " fill="#4E4FEB" transform="translate(338.190185546875,278.822998046875)"/>
</svg>
